<?xml version="1.0" encoding="UTF-8"?>
<svg id="Layer_1" data-name="Layer 1" xmlns="http://www.w3.org/2000/svg" viewBox="0 0 672.71 75.73">
  <defs>
    <style>
      .cls-1 {
        fill: #000;
      }

      .cls-1, .cls-2, .cls-3 {
        stroke-width: 0px;
      }

      .cls-2 {
        fill: #086661;
      }

      .cls-3 {
        fill: #fff;
      }
    </style>
  </defs>
  <g>
    <path class="cls-1" d="M62.21,51.95c0,3.52-.71,6.66-2.12,9.42-1.42,2.77-3.36,5.06-5.83,6.88-2.86,2.15-6.01,3.68-9.45,4.59-3.43.91-7.79,1.37-13.06,1.37H1.42c-.79,0-1.42-.64-1.42-1.42V2.94c0-.79.64-1.42,1.42-1.42h26.8c5.86,0,10.15.2,12.87.59,2.72.39,5.41,1.25,8.08,2.59,2.77,1.4,4.83,3.28,6.18,5.64,1.35,2.36,2.03,5.05,2.03,8.08,0,3.52-.93,6.62-2.78,9.3s-4.48,4.78-7.86,6.27v.39c4.75.94,8.52,2.9,11.3,5.86,2.78,2.96,4.17,6.87,4.17,11.72ZM38.18,22.07c0-1.2-.3-2.41-.9-3.61-.6-1.2-1.67-2.1-3.2-2.69-1.37-.52-3.07-.81-5.1-.85-2.03-.05-4.89-.07-8.57-.07h-.34c-.79,0-1.42.64-1.42,1.42v12.54c0,.79.64,1.42,1.42,1.42h1.51c2.96,0,5.48-.05,7.57-.15,2.08-.1,3.73-.42,4.93-.98,1.69-.75,2.8-1.72,3.32-2.91.52-1.19.78-2.56.78-4.13ZM42.72,51.66c0-2.31-.45-4.09-1.34-5.35-.89-1.25-2.41-2.19-4.56-2.81-1.46-.42-3.48-.65-6.04-.68-2.57-.03-5.25-.05-8.04-.05h-2.67c-.79,0-1.42.64-1.42,1.42v16.69h1.36c5.26,0,9.03-.02,11.31-.05,2.27-.03,4.37-.46,6.29-1.27,1.95-.81,3.29-1.9,4.02-3.25.73-1.35,1.1-2.91,1.1-4.66Z"/>
    <path class="cls-1" d="M139.84,47.9c0,8.98-2.73,15.87-8.2,20.65s-13.53,7.18-24.17,7.18-18.69-2.39-24.15-7.18c-5.45-4.79-8.18-11.65-8.18-20.61V2.94c0-.79.64-1.42,1.42-1.42h16c.79,0,1.42.64,1.42,1.42v43.94c0,5.05,1.06,8.81,3.17,11.28,2.12,2.47,5.55,3.71,10.3,3.71s8.11-1.19,10.28-3.56c2.16-2.38,3.25-6.18,3.25-11.43V2.94c0-.79.64-1.42,1.42-1.42h16c.79,0,1.42.64,1.42,1.42v44.96Z"/>
    <path class="cls-1" d="M224.48,74.22h-19.28c-.45,0-.87-.21-1.14-.57l-18.93-25.51c-.27-.36-.69-.57-1.14-.57h-6.55c-.79,0-1.42.64-1.42,1.42v23.82c0,.79-.64,1.42-1.42,1.42h-15.81c-.79,0-1.42-.64-1.42-1.42V2.94c0-.79.64-1.42,1.42-1.42h30.02c4.3,0,7.99.24,11.08.73,3.09.49,5.99,1.55,8.69,3.17,2.73,1.63,4.91,3.74,6.52,6.32s2.42,5.83,2.42,9.74c0,5.37-1.25,9.75-3.74,13.13-2.22,3.01-5.28,5.58-9.19,7.69-.77.41-.96,1.43-.43,2.11l21.43,27.5c.73.93.06,2.3-1.12,2.3ZM198.14,23.78c0-1.82-.37-3.39-1.12-4.69-.75-1.3-2.03-2.33-3.86-3.08-1.27-.52-2.75-.84-4.44-.95-1.69-.11-3.66-.17-5.91-.17h-5.37c-.79,0-1.42.64-1.42,1.42v16.74c0,.79.64,1.42,1.42,1.42h4.34c2.99,0,5.5-.15,7.52-.44,2.02-.29,3.71-.96,5.08-2,1.3-1.01,2.25-2.12,2.86-3.34.6-1.22.9-2.86.9-4.91Z"/>
    <path class="cls-1" d="M299.9,69.08c0,.59-.36,1.13-.92,1.33-3.13,1.15-7.14,2.3-12.02,3.44-5.37,1.25-10.73,1.88-16.06,1.88-12.37,0-22.05-3.36-29.05-10.08-7-6.72-10.5-16.01-10.5-27.86s3.53-20.4,10.6-27.32C249.01,3.56,258.85.1,271.48.1c4.79,0,9.34.43,13.67,1.29,4.11.82,8.65,2.4,13.63,4.76.5.24.82.74.82,1.29v14.72c0,.79-.64,1.42-1.42,1.42h-.21c-.31,0-.6-.1-.85-.28-.89-.66-2.1-1.53-3.63-2.63-1.76-1.25-3.45-2.32-5.08-3.2-1.89-1.04-4.09-1.94-6.62-2.69-2.52-.75-5.2-1.12-8.03-1.12-3.32,0-6.33.49-9.03,1.46-2.7.98-5.13,2.47-7.28,4.49-2.05,1.95-3.67,4.44-4.86,7.45-1.19,3.01-1.78,6.49-1.78,10.42,0,8.04,2.13,14.19,6.4,18.46,4.26,4.26,10.56,6.4,18.9,6.4.72,0,1.51-.02,2.37-.05.36-.01.71-.03,1.04-.05.75-.04,1.33-.67,1.33-1.42v-11.51c0-.79-.64-1.42-1.42-1.42h-11.66c-.79,0-1.42-.64-1.42-1.42v-10.88c0-.79.64-1.42,1.42-1.42h30.7c.79,0,1.42.64,1.42,1.42v33.48Z"/>
    <path class="cls-1" d="M367.87,74.22h-49.74c-.79,0-1.42-.64-1.42-1.42V2.94c0-.79.64-1.42,1.42-1.42h49.74c.79,0,1.42.64,1.42,1.42v11.22c0,.79-.64,1.42-1.42,1.42h-31.09c-.79,0-1.42.64-1.42,1.42v9.71c0,.79.64,1.42,1.42,1.42h28.65c.79,0,1.42.64,1.42,1.42v11.22c0,.79-.64,1.42-1.42,1.42h-28.65c-.79,0-1.42.64-1.42,1.42v15.13c0,.79.64,1.42,1.42,1.42h31.09c.79,0,1.42.64,1.42,1.42v11.22c0,.79-.64,1.42-1.42,1.42Z"/>
    <path class="cls-1" d="M452.12,74.22h-19.28c-.45,0-.87-.21-1.14-.57l-18.93-25.51c-.27-.36-.69-.57-1.14-.57h-6.55c-.79,0-1.42.64-1.42,1.42v23.82c0,.79-.64,1.42-1.42,1.42h-15.81c-.79,0-1.42-.64-1.42-1.42V2.94c0-.79.64-1.42,1.42-1.42h30.02c4.3,0,7.99.24,11.08.73,3.09.49,5.99,1.55,8.69,3.17,2.73,1.63,4.91,3.74,6.52,6.32s2.42,5.83,2.42,9.74c0,5.37-1.25,9.75-3.74,13.13-2.22,3.01-5.28,5.58-9.19,7.69-.77.41-.96,1.43-.43,2.11l21.43,27.5c.73.93.06,2.3-1.12,2.3ZM425.78,23.78c0-1.82-.37-3.39-1.12-4.69-.75-1.3-2.03-2.33-3.86-3.08-1.27-.52-2.75-.84-4.44-.95-1.69-.11-3.66-.17-5.91-.17h-5.37c-.79,0-1.42.64-1.42,1.42v16.74c0,.79.64,1.42,1.42,1.42h4.34c2.99,0,5.5-.15,7.52-.44,2.02-.29,3.71-.96,5.08-2,1.3-1.01,2.25-2.12,2.86-3.34.6-1.22.9-2.86.9-4.91Z"/>
    <path class="cls-1" d="M530.27,75.63c-5.4,0-10.39-.8-14.97-2.39-4.57-1.59-8.5-3.97-11.79-7.13-3.29-3.16-5.83-7.1-7.64-11.82-1.81-4.72-2.71-10.17-2.71-16.36,0-5.76.86-10.99,2.59-15.67,1.73-4.69,4.23-8.71,7.52-12.06,3.16-3.22,7.07-5.71,11.74-7.47,4.67-1.76,9.77-2.64,15.31-2.64,3.06,0,5.82.17,8.28.51,2.46.34,4.73.79,6.81,1.34,2.18.62,4.16,1.31,5.93,2.08,1.43.62,2.71,1.2,3.86,1.74.49.23.81.73.81,1.28v15.31c0,.79-.64,1.42-1.42,1.42h-.21c-.33,0-.65-.11-.91-.33-.84-.7-1.86-1.52-3.05-2.44-1.38-1.07-2.95-2.12-4.71-3.16-1.79-1.04-3.73-1.91-5.81-2.62-2.08-.71-4.31-1.07-6.69-1.07-2.64,0-5.14.41-7.52,1.24-2.38.83-4.57,2.2-6.59,4.12-1.92,1.85-3.48,4.3-4.66,7.36-1.19,3.05-1.78,6.76-1.78,11.11s.64,8.35,1.93,11.4c1.29,3.05,2.91,5.46,4.86,7.21,1.99,1.79,4.2,3.06,6.64,3.83s4.85,1.14,7.23,1.14,4.53-.34,6.76-1.02c2.23-.68,4.29-1.6,6.18-2.77,1.59-.94,3.08-1.94,4.44-3.01,1.17-.91,2.16-1.72,2.97-2.42.26-.22.58-.35.93-.35h0c.79,0,1.42.64,1.42,1.42v15.04c0,.56-.34,1.08-.85,1.3-1.52.67-2.97,1.31-4.37,1.92-1.66.72-3.4,1.33-5.22,1.86-2.38.68-4.61,1.2-6.69,1.56-2.08.36-4.95.54-8.59.54Z"/>
    <path class="cls-1" d="M640.48,37.89c0,11.59-3.32,20.79-9.96,27.61-6.64,6.82-15.82,10.23-27.54,10.23s-20.85-3.41-27.49-10.23c-6.64-6.82-9.96-16.02-9.96-27.61s3.32-20.92,9.96-27.71,15.8-10.18,27.49-10.18,20.82,3.39,27.49,10.18c6.67,6.79,10.01,16.02,10.01,27.71ZM615.62,56.3c1.82-2.21,3.17-4.83,4.05-7.84.88-3.01,1.32-6.55,1.32-10.62,0-4.36-.5-8.07-1.51-11.13-1.01-3.06-2.33-5.53-3.96-7.42-1.66-1.95-3.57-3.37-5.74-4.25-2.17-.88-4.42-1.32-6.76-1.32s-4.61.42-6.71,1.27c-2.1.85-4.03,2.25-5.79,4.2-1.63,1.82-2.95,4.34-3.98,7.54-1.03,3.21-1.54,6.93-1.54,11.16s.5,8.02,1.49,11.06c.99,3.04,2.3,5.53,3.93,7.45,1.63,1.92,3.53,3.34,5.71,4.25,2.18.91,4.48,1.37,6.88,1.37s4.7-.46,6.88-1.39c2.18-.93,4.08-2.37,5.71-4.32Z"/>
    <path class="cls-1" d="M671.28,74.22h-15.42c-.79,0-1.42-.64-1.42-1.42v-16.35c0-.79.64-1.42,1.42-1.42h15.42c.79,0,1.42.64,1.42,1.42v16.35c0,.79-.64,1.42-1.42,1.42Z"/>
  </g>
  <g>
    <g>
      <path class="cls-2" d="M67.21,56.95c0,3.52-.71,6.66-2.12,9.42-1.42,2.77-3.36,5.06-5.83,6.88-2.86,2.15-6.01,3.68-9.45,4.59-3.43.91-7.79,1.37-13.06,1.37H6.42c-.79,0-1.42-.64-1.42-1.42V7.94c0-.79.64-1.42,1.42-1.42h26.8c5.86,0,10.15.2,12.87.59,2.72.39,5.41,1.25,8.08,2.59,2.77,1.4,4.83,3.28,6.18,5.64,1.35,2.36,2.03,5.05,2.03,8.08,0,3.52-.93,6.62-2.78,9.3s-4.48,4.78-7.86,6.27v.39c4.75.94,8.52,2.9,11.3,5.86,2.78,2.96,4.17,6.87,4.17,11.72ZM43.18,27.07c0-1.2-.3-2.41-.9-3.61-.6-1.2-1.67-2.1-3.2-2.69-1.37-.52-3.07-.81-5.1-.85-2.03-.05-4.89-.07-8.57-.07h-.34c-.79,0-1.42.64-1.42,1.42v12.54c0,.79.64,1.42,1.42,1.42h1.51c2.96,0,5.48-.05,7.57-.15,2.08-.1,3.73-.42,4.93-.98,1.69-.75,2.8-1.72,3.32-2.91.52-1.19.78-2.56.78-4.13ZM47.72,56.66c0-2.31-.45-4.09-1.34-5.35-.89-1.25-2.41-2.19-4.56-2.81-1.46-.42-3.48-.65-6.04-.68-2.57-.03-5.25-.05-8.04-.05h-2.67c-.79,0-1.42.64-1.42,1.42v16.69h1.36c5.26,0,9.03-.02,11.31-.05,2.27-.03,4.37-.46,6.29-1.27,1.95-.81,3.29-1.9,4.02-3.25.73-1.35,1.1-2.91,1.1-4.66Z"/>
      <path class="cls-2" d="M144.84,52.9c0,8.98-2.73,15.87-8.2,20.65s-13.53,7.18-24.17,7.18-18.69-2.39-24.15-7.18c-5.45-4.79-8.18-11.65-8.18-20.61V7.94c0-.79.64-1.42,1.42-1.42h16c.79,0,1.42.64,1.42,1.42v43.94c0,5.05,1.06,8.81,3.17,11.28,2.12,2.47,5.55,3.71,10.3,3.71s8.11-1.19,10.28-3.56c2.16-2.38,3.25-6.18,3.25-11.43V7.94c0-.79.64-1.42,1.42-1.42h16c.79,0,1.42.64,1.42,1.42v44.96Z"/>
      <path class="cls-2" d="M229.48,79.22h-19.28c-.45,0-.87-.21-1.14-.57l-18.93-25.51c-.27-.36-.69-.57-1.14-.57h-6.55c-.79,0-1.42.64-1.42,1.42v23.82c0,.79-.64,1.42-1.42,1.42h-15.81c-.79,0-1.42-.64-1.42-1.42V7.94c0-.79.64-1.42,1.42-1.42h30.02c4.3,0,7.99.24,11.08.73,3.09.49,5.99,1.55,8.69,3.17,2.73,1.63,4.91,3.74,6.52,6.32s2.42,5.83,2.42,9.74c0,5.37-1.25,9.75-3.74,13.13-2.22,3.01-5.28,5.58-9.19,7.69-.77.41-.96,1.43-.43,2.11l21.43,27.5c.73.93.06,2.3-1.12,2.3ZM203.14,28.78c0-1.82-.37-3.39-1.12-4.69-.75-1.3-2.03-2.33-3.86-3.08-1.27-.52-2.75-.84-4.44-.95-1.69-.11-3.66-.17-5.91-.17h-5.37c-.79,0-1.42.64-1.42,1.42v16.74c0,.79.64,1.42,1.42,1.42h4.34c2.99,0,5.5-.15,7.52-.44,2.02-.29,3.71-.96,5.08-2,1.3-1.01,2.25-2.12,2.86-3.34.6-1.22.9-2.86.9-4.91Z"/>
      <path class="cls-2" d="M304.9,74.08c0,.59-.36,1.13-.92,1.33-3.13,1.15-7.14,2.3-12.02,3.44-5.37,1.25-10.73,1.88-16.06,1.88-12.37,0-22.05-3.36-29.05-10.08-7-6.72-10.5-16.01-10.5-27.86s3.53-20.4,10.6-27.32c7.06-6.92,16.91-10.38,29.54-10.38,4.79,0,9.34.43,13.67,1.29,4.11.82,8.65,2.4,13.63,4.76.5.24.82.74.82,1.29v14.72c0,.79-.64,1.42-1.42,1.42h-.21c-.31,0-.6-.1-.85-.28-.89-.66-2.1-1.53-3.63-2.63-1.76-1.25-3.45-2.32-5.08-3.2-1.89-1.04-4.09-1.94-6.62-2.69-2.52-.75-5.2-1.12-8.03-1.12-3.32,0-6.33.49-9.03,1.46-2.7.98-5.13,2.47-7.28,4.49-2.05,1.95-3.67,4.44-4.86,7.45-1.19,3.01-1.78,6.49-1.78,10.42,0,8.04,2.13,14.19,6.4,18.46,4.26,4.26,10.56,6.4,18.9,6.4.72,0,1.51-.02,2.37-.05.36-.01.71-.03,1.04-.05.75-.04,1.33-.67,1.33-1.42v-11.51c0-.79-.64-1.42-1.42-1.42h-11.66c-.79,0-1.42-.64-1.42-1.42v-10.88c0-.79.64-1.42,1.42-1.42h30.7c.79,0,1.42.64,1.42,1.42v33.48Z"/>
      <path class="cls-2" d="M372.87,79.22h-49.74c-.79,0-1.42-.64-1.42-1.42V7.94c0-.79.64-1.42,1.42-1.42h49.74c.79,0,1.42.64,1.42,1.42v11.22c0,.79-.64,1.42-1.42,1.42h-31.09c-.79,0-1.42.64-1.42,1.42v9.71c0,.79.64,1.42,1.42,1.42h28.65c.79,0,1.42.64,1.42,1.42v11.22c0,.79-.64,1.42-1.42,1.42h-28.65c-.79,0-1.42.64-1.42,1.42v15.13c0,.79.64,1.42,1.42,1.42h31.09c.79,0,1.42.64,1.42,1.42v11.22c0,.79-.64,1.42-1.42,1.42Z"/>
      <path class="cls-2" d="M457.12,79.22h-19.28c-.45,0-.87-.21-1.14-.57l-18.93-25.51c-.27-.36-.69-.57-1.14-.57h-6.55c-.79,0-1.42.64-1.42,1.42v23.82c0,.79-.64,1.42-1.42,1.42h-15.81c-.79,0-1.42-.64-1.42-1.42V7.94c0-.79.64-1.42,1.42-1.42h30.02c4.3,0,7.99.24,11.08.73,3.09.49,5.99,1.55,8.69,3.17,2.73,1.63,4.91,3.74,6.52,6.32s2.42,5.83,2.42,9.74c0,5.37-1.25,9.75-3.74,13.13-2.22,3.01-5.28,5.58-9.19,7.69-.77.41-.96,1.43-.43,2.11l21.43,27.5c.73.93.06,2.3-1.12,2.3ZM430.78,28.78c0-1.82-.37-3.39-1.12-4.69-.75-1.3-2.03-2.33-3.86-3.08-1.27-.52-2.75-.84-4.44-.95-1.69-.11-3.66-.17-5.91-.17h-5.37c-.79,0-1.42.64-1.42,1.42v16.74c0,.79.64,1.42,1.42,1.42h4.34c2.99,0,5.5-.15,7.52-.44,2.02-.29,3.71-.96,5.08-2,1.3-1.01,2.25-2.12,2.86-3.34.6-1.22.9-2.86.9-4.91Z"/>
      <path class="cls-2" d="M535.27,80.63c-5.4,0-10.39-.8-14.97-2.39-4.57-1.59-8.5-3.97-11.79-7.13-3.29-3.16-5.83-7.1-7.64-11.82-1.81-4.72-2.71-10.17-2.71-16.36,0-5.76.86-10.99,2.59-15.67,1.73-4.69,4.23-8.71,7.52-12.06,3.16-3.22,7.07-5.71,11.74-7.47,4.67-1.76,9.77-2.64,15.31-2.64,3.06,0,5.82.17,8.28.51,2.46.34,4.73.79,6.81,1.34,2.18.62,4.16,1.31,5.93,2.08,1.43.62,2.71,1.2,3.86,1.74.49.23.81.73.81,1.28v15.31c0,.79-.64,1.42-1.42,1.42h-.21c-.33,0-.65-.11-.91-.33-.84-.7-1.86-1.52-3.05-2.44-1.38-1.07-2.95-2.12-4.71-3.16-1.79-1.04-3.73-1.91-5.81-2.62-2.08-.71-4.31-1.07-6.69-1.07-2.64,0-5.14.41-7.52,1.24-2.38.83-4.57,2.2-6.59,4.12-1.92,1.85-3.48,4.3-4.66,7.36-1.19,3.05-1.78,6.76-1.78,11.11s.64,8.35,1.93,11.4c1.29,3.05,2.91,5.46,4.86,7.21,1.99,1.79,4.2,3.06,6.64,3.83s4.85,1.14,7.23,1.14,4.53-.34,6.76-1.02c2.23-.68,4.29-1.6,6.18-2.77,1.59-.94,3.08-1.94,4.44-3.01,1.17-.91,2.16-1.72,2.97-2.42.26-.22.58-.35.93-.35h0c.79,0,1.42.64,1.42,1.42v15.04c0,.56-.34,1.08-.85,1.3-1.52.67-2.97,1.31-4.37,1.92-1.66.72-3.4,1.33-5.22,1.86-2.38.68-4.61,1.2-6.69,1.56-2.08.36-4.95.54-8.59.54Z"/>
      <path class="cls-2" d="M645.48,42.89c0,11.59-3.32,20.79-9.96,27.61-6.64,6.82-15.82,10.23-27.54,10.23s-20.85-3.41-27.49-10.23c-6.64-6.82-9.96-16.02-9.96-27.61s3.32-20.92,9.96-27.71,15.8-10.18,27.49-10.18,20.82,3.39,27.49,10.18c6.67,6.79,10.01,16.02,10.01,27.71ZM620.62,61.3c1.82-2.21,3.17-4.83,4.05-7.84.88-3.01,1.32-6.55,1.32-10.62,0-4.36-.5-8.07-1.51-11.13-1.01-3.06-2.33-5.53-3.96-7.42-1.66-1.95-3.57-3.37-5.74-4.25-2.17-.88-4.42-1.32-6.76-1.32s-4.61.42-6.71,1.27c-2.1.85-4.03,2.25-5.79,4.2-1.63,1.82-2.95,4.34-3.98,7.54-1.03,3.21-1.54,6.93-1.54,11.16s.5,8.02,1.49,11.06c.99,3.04,2.3,5.53,3.93,7.45,1.63,1.92,3.53,3.34,5.71,4.25,2.18.91,4.48,1.37,6.88,1.37s4.7-.46,6.88-1.39c2.18-.93,4.08-2.37,5.71-4.32Z"/>
      <path class="cls-2" d="M676.28,79.22h-15.42c-.79,0-1.42-.64-1.42-1.42v-16.35c0-.79.64-1.42,1.42-1.42h15.42c.79,0,1.42.64,1.42,1.42v16.35c0,.79-.64,1.42-1.42,1.42Z"/>
    </g>
    <g>
      <path class="cls-2" d="M66.21,55.95c0,3.52-.71,6.66-2.12,9.42-1.42,2.77-3.36,5.06-5.83,6.88-2.86,2.15-6.01,3.68-9.45,4.59-3.43.91-7.79,1.37-13.06,1.37H5.42c-.79,0-1.42-.64-1.42-1.42V6.94c0-.79.64-1.42,1.42-1.42h26.8c5.86,0,10.15.2,12.87.59,2.72.39,5.41,1.25,8.08,2.59,2.77,1.4,4.83,3.28,6.18,5.64,1.35,2.36,2.03,5.05,2.03,8.08,0,3.52-.93,6.62-2.78,9.3s-4.48,4.78-7.86,6.27v.39c4.75.94,8.52,2.9,11.3,5.86,2.78,2.96,4.17,6.87,4.17,11.72ZM42.18,26.07c0-1.2-.3-2.41-.9-3.61-.6-1.2-1.67-2.1-3.2-2.69-1.37-.52-3.07-.81-5.1-.85-2.03-.05-4.89-.07-8.57-.07h-.34c-.79,0-1.42.64-1.42,1.42v12.54c0,.79.64,1.42,1.42,1.42h1.51c2.96,0,5.48-.05,7.57-.15,2.08-.1,3.73-.42,4.93-.98,1.69-.75,2.8-1.72,3.32-2.91.52-1.19.78-2.56.78-4.13ZM46.72,55.66c0-2.31-.45-4.09-1.34-5.35-.89-1.25-2.41-2.19-4.56-2.81-1.46-.42-3.48-.65-6.04-.68-2.57-.03-5.25-.05-8.04-.05h-2.67c-.79,0-1.42.64-1.42,1.42v16.69h1.36c5.26,0,9.03-.02,11.31-.05,2.27-.03,4.37-.46,6.29-1.27,1.95-.81,3.29-1.9,4.02-3.25.73-1.35,1.1-2.91,1.1-4.66Z"/>
      <path class="cls-2" d="M143.84,51.9c0,8.98-2.73,15.87-8.2,20.65s-13.53,7.18-24.17,7.18-18.69-2.39-24.15-7.18c-5.45-4.79-8.18-11.65-8.18-20.61V6.94c0-.79.64-1.42,1.42-1.42h16c.79,0,1.42.64,1.42,1.42v43.94c0,5.05,1.06,8.81,3.17,11.28,2.12,2.47,5.55,3.71,10.3,3.71s8.11-1.19,10.28-3.56c2.16-2.38,3.25-6.18,3.25-11.43V6.94c0-.79.64-1.42,1.42-1.42h16c.79,0,1.42.64,1.42,1.42v44.96Z"/>
      <path class="cls-2" d="M228.48,78.22h-19.28c-.45,0-.87-.21-1.14-.57l-18.93-25.51c-.27-.36-.69-.57-1.14-.57h-6.55c-.79,0-1.42.64-1.42,1.42v23.82c0,.79-.64,1.42-1.42,1.42h-15.81c-.79,0-1.42-.64-1.42-1.42V6.94c0-.79.64-1.42,1.42-1.42h30.02c4.3,0,7.99.24,11.08.73,3.09.49,5.99,1.55,8.69,3.17,2.73,1.63,4.91,3.74,6.52,6.32s2.42,5.83,2.42,9.74c0,5.37-1.25,9.75-3.74,13.13-2.22,3.01-5.28,5.58-9.19,7.69-.77.41-.96,1.43-.43,2.11l21.43,27.5c.73.93.06,2.3-1.12,2.3ZM202.14,27.78c0-1.82-.37-3.39-1.12-4.69-.75-1.3-2.03-2.33-3.86-3.08-1.27-.52-2.75-.84-4.44-.95-1.69-.11-3.66-.17-5.91-.17h-5.37c-.79,0-1.42.64-1.42,1.42v16.74c0,.79.64,1.42,1.42,1.42h4.34c2.99,0,5.5-.15,7.52-.44,2.02-.29,3.71-.96,5.08-2,1.3-1.01,2.25-2.12,2.86-3.34.6-1.22.9-2.86.9-4.91Z"/>
      <path class="cls-2" d="M303.9,73.08c0,.59-.36,1.13-.92,1.33-3.13,1.15-7.14,2.3-12.02,3.44-5.37,1.25-10.73,1.88-16.06,1.88-12.37,0-22.05-3.36-29.05-10.08-7-6.72-10.5-16.01-10.5-27.86s3.53-20.4,10.6-27.32c7.06-6.92,16.91-10.38,29.54-10.38,4.79,0,9.34.43,13.67,1.29,4.11.82,8.65,2.4,13.63,4.76.5.24.82.74.82,1.29v14.72c0,.79-.64,1.42-1.42,1.42h-.21c-.31,0-.6-.1-.85-.28-.89-.66-2.1-1.53-3.63-2.63-1.76-1.25-3.45-2.32-5.08-3.2-1.89-1.04-4.09-1.94-6.62-2.69-2.52-.75-5.2-1.12-8.03-1.12-3.32,0-6.33.49-9.03,1.46-2.7.98-5.13,2.47-7.28,4.49-2.05,1.95-3.67,4.44-4.86,7.45-1.19,3.01-1.78,6.49-1.78,10.42,0,8.04,2.13,14.19,6.4,18.46,4.26,4.26,10.56,6.4,18.9,6.4.72,0,1.51-.02,2.37-.05.36-.01.71-.03,1.04-.05.75-.04,1.33-.67,1.33-1.42v-11.51c0-.79-.64-1.42-1.42-1.42h-11.66c-.79,0-1.42-.64-1.42-1.42v-10.88c0-.79.64-1.42,1.42-1.42h30.7c.79,0,1.42.64,1.42,1.42v33.48Z"/>
      <path class="cls-2" d="M371.87,78.22h-49.74c-.79,0-1.42-.64-1.42-1.42V6.94c0-.79.64-1.42,1.42-1.42h49.74c.79,0,1.42.64,1.42,1.42v11.22c0,.79-.64,1.42-1.42,1.42h-31.09c-.79,0-1.42.64-1.42,1.42v9.71c0,.79.64,1.42,1.42,1.42h28.65c.79,0,1.42.64,1.42,1.42v11.22c0,.79-.64,1.42-1.42,1.42h-28.65c-.79,0-1.42.64-1.42,1.42v15.13c0,.79.64,1.42,1.42,1.42h31.09c.79,0,1.42.64,1.42,1.42v11.22c0,.79-.64,1.42-1.42,1.42Z"/>
      <path class="cls-2" d="M456.12,78.22h-19.28c-.45,0-.87-.21-1.14-.57l-18.93-25.51c-.27-.36-.69-.57-1.14-.57h-6.55c-.79,0-1.42.64-1.42,1.42v23.82c0,.79-.64,1.42-1.42,1.42h-15.81c-.79,0-1.42-.64-1.42-1.42V6.94c0-.79.64-1.42,1.42-1.42h30.02c4.3,0,7.99.24,11.08.73,3.09.49,5.99,1.55,8.69,3.17,2.73,1.63,4.91,3.74,6.52,6.32s2.42,5.83,2.42,9.74c0,5.37-1.25,9.75-3.74,13.13-2.22,3.01-5.28,5.58-9.19,7.69-.77.41-.96,1.43-.43,2.11l21.43,27.5c.73.93.06,2.3-1.12,2.3ZM429.78,27.78c0-1.82-.37-3.39-1.12-4.69-.75-1.3-2.03-2.33-3.86-3.08-1.27-.52-2.75-.84-4.44-.95-1.69-.11-3.66-.17-5.91-.17h-5.37c-.79,0-1.42.64-1.42,1.42v16.74c0,.79.64,1.42,1.42,1.42h4.34c2.99,0,5.5-.15,7.52-.44,2.02-.29,3.71-.96,5.08-2,1.3-1.01,2.25-2.12,2.86-3.34.6-1.22.9-2.86.9-4.91Z"/>
      <path class="cls-2" d="M534.27,79.63c-5.4,0-10.39-.8-14.97-2.39-4.57-1.59-8.5-3.97-11.79-7.13-3.29-3.16-5.83-7.1-7.64-11.82-1.81-4.72-2.71-10.17-2.71-16.36,0-5.76.86-10.99,2.59-15.67,1.73-4.69,4.23-8.71,7.52-12.06,3.16-3.22,7.07-5.71,11.74-7.47,4.67-1.76,9.77-2.64,15.31-2.64,3.06,0,5.82.17,8.28.51,2.46.34,4.73.79,6.81,1.34,2.18.62,4.16,1.31,5.93,2.08,1.43.62,2.71,1.2,3.86,1.74.49.23.81.73.81,1.28v15.31c0,.79-.64,1.42-1.42,1.42h-.21c-.33,0-.65-.11-.91-.33-.84-.7-1.86-1.52-3.05-2.44-1.38-1.07-2.95-2.12-4.71-3.16-1.79-1.04-3.73-1.91-5.81-2.62-2.08-.71-4.31-1.07-6.69-1.07-2.64,0-5.14.41-7.52,1.24-2.38.83-4.57,2.2-6.59,4.12-1.92,1.85-3.48,4.3-4.66,7.36-1.19,3.05-1.78,6.76-1.78,11.11s.64,8.35,1.93,11.4c1.29,3.05,2.91,5.46,4.86,7.21,1.99,1.79,4.2,3.06,6.64,3.83s4.85,1.14,7.23,1.14,4.53-.34,6.76-1.02c2.23-.68,4.29-1.6,6.18-2.77,1.59-.94,3.08-1.94,4.44-3.01,1.17-.91,2.16-1.72,2.97-2.42.26-.22.58-.35.93-.35h0c.79,0,1.42.64,1.42,1.42v15.04c0,.56-.34,1.08-.85,1.3-1.52.67-2.97,1.31-4.37,1.92-1.66.72-3.4,1.33-5.22,1.86-2.38.68-4.61,1.2-6.69,1.56-2.08.36-4.95.54-8.59.54Z"/>
      <path class="cls-2" d="M644.48,41.89c0,11.59-3.32,20.79-9.96,27.61-6.64,6.82-15.82,10.23-27.54,10.23s-20.85-3.41-27.49-10.23c-6.64-6.82-9.96-16.02-9.96-27.61s3.32-20.92,9.96-27.71,15.8-10.18,27.49-10.18,20.82,3.39,27.49,10.18c6.67,6.79,10.01,16.02,10.01,27.71ZM619.62,60.3c1.82-2.21,3.17-4.83,4.05-7.84.88-3.01,1.32-6.55,1.32-10.62,0-4.36-.5-8.07-1.51-11.13-1.01-3.06-2.33-5.53-3.96-7.42-1.66-1.95-3.57-3.37-5.74-4.25-2.17-.88-4.42-1.32-6.76-1.32s-4.61.42-6.71,1.27c-2.1.85-4.03,2.25-5.79,4.2-1.63,1.82-2.95,4.34-3.98,7.54-1.03,3.21-1.54,6.93-1.54,11.16s.5,8.02,1.49,11.06c.99,3.04,2.3,5.53,3.93,7.45,1.63,1.92,3.53,3.34,5.71,4.25,2.18.91,4.48,1.37,6.88,1.37s4.7-.46,6.88-1.39c2.18-.93,4.08-2.37,5.71-4.32Z"/>
      <path class="cls-2" d="M675.28,78.22h-15.42c-.79,0-1.42-.64-1.42-1.42v-16.35c0-.79.64-1.42,1.42-1.42h15.42c.79,0,1.42.64,1.42,1.42v16.35c0,.79-.64,1.42-1.42,1.42Z"/>
    </g>
    <g>
      <path class="cls-2" d="M65.21,54.95c0,3.52-.71,6.66-2.12,9.42-1.42,2.77-3.36,5.06-5.83,6.88-2.86,2.15-6.01,3.68-9.45,4.59-3.43.91-7.79,1.37-13.06,1.37H4.42c-.79,0-1.42-.64-1.42-1.42V5.94c0-.79.64-1.42,1.42-1.42h26.8c5.86,0,10.15.2,12.87.59,2.72.39,5.41,1.25,8.08,2.59,2.77,1.4,4.83,3.28,6.18,5.64,1.35,2.36,2.03,5.05,2.03,8.08,0,3.52-.93,6.62-2.78,9.3s-4.48,4.78-7.86,6.27v.39c4.75.94,8.52,2.9,11.3,5.86,2.78,2.96,4.17,6.87,4.17,11.72ZM41.18,25.07c0-1.2-.3-2.41-.9-3.61-.6-1.2-1.67-2.1-3.2-2.69-1.37-.52-3.07-.81-5.1-.85-2.03-.05-4.89-.07-8.57-.07h-.34c-.79,0-1.42.64-1.42,1.42v12.54c0,.79.64,1.42,1.42,1.42h1.51c2.96,0,5.48-.05,7.57-.15,2.08-.1,3.73-.42,4.93-.98,1.69-.75,2.8-1.72,3.32-2.91.52-1.19.78-2.56.78-4.13ZM45.72,54.66c0-2.31-.45-4.09-1.34-5.35-.89-1.25-2.41-2.19-4.56-2.81-1.46-.42-3.48-.65-6.04-.68-2.57-.03-5.25-.05-8.04-.05h-2.67c-.79,0-1.42.64-1.42,1.42v16.69h1.36c5.26,0,9.03-.02,11.31-.05,2.27-.03,4.37-.46,6.29-1.27,1.95-.81,3.29-1.9,4.02-3.25.73-1.35,1.1-2.91,1.1-4.66Z"/>
      <path class="cls-2" d="M142.84,50.9c0,8.98-2.73,15.87-8.2,20.65s-13.53,7.18-24.17,7.18-18.69-2.39-24.15-7.18c-5.45-4.79-8.18-11.65-8.18-20.61V5.94c0-.79.64-1.42,1.42-1.42h16c.79,0,1.42.64,1.42,1.42v43.94c0,5.05,1.06,8.81,3.17,11.28,2.12,2.47,5.55,3.71,10.3,3.71s8.11-1.19,10.28-3.56c2.16-2.38,3.25-6.18,3.25-11.43V5.94c0-.79.64-1.42,1.42-1.42h16c.79,0,1.42.64,1.42,1.42v44.96Z"/>
      <path class="cls-2" d="M227.48,77.22h-19.28c-.45,0-.87-.21-1.14-.57l-18.93-25.51c-.27-.36-.69-.57-1.14-.57h-6.55c-.79,0-1.42.64-1.42,1.42v23.82c0,.79-.64,1.42-1.42,1.42h-15.81c-.79,0-1.42-.64-1.42-1.42V5.94c0-.79.64-1.42,1.42-1.42h30.02c4.3,0,7.99.24,11.08.73,3.09.49,5.99,1.55,8.69,3.17,2.73,1.63,4.91,3.74,6.52,6.32s2.42,5.83,2.42,9.74c0,5.37-1.25,9.75-3.74,13.13-2.22,3.01-5.28,5.58-9.19,7.69-.77.41-.96,1.43-.43,2.11l21.43,27.5c.73.93.06,2.3-1.12,2.3ZM201.14,26.78c0-1.82-.37-3.39-1.12-4.69-.75-1.3-2.03-2.33-3.86-3.08-1.27-.52-2.75-.84-4.44-.95-1.69-.11-3.66-.17-5.91-.17h-5.37c-.79,0-1.42.64-1.42,1.42v16.74c0,.79.64,1.42,1.42,1.42h4.34c2.99,0,5.5-.15,7.52-.44,2.02-.29,3.71-.96,5.08-2,1.3-1.01,2.25-2.12,2.86-3.34.6-1.22.9-2.86.9-4.91Z"/>
      <path class="cls-2" d="M302.9,72.08c0,.59-.36,1.13-.92,1.33-3.13,1.15-7.14,2.3-12.02,3.44-5.37,1.25-10.73,1.88-16.06,1.88-12.37,0-22.05-3.36-29.05-10.08-7-6.72-10.5-16.01-10.5-27.86s3.53-20.4,10.6-27.32c7.06-6.92,16.91-10.38,29.54-10.38,4.79,0,9.34.43,13.67,1.29,4.11.82,8.65,2.4,13.63,4.76.5.24.82.74.82,1.29v14.72c0,.79-.64,1.42-1.42,1.42h-.21c-.31,0-.6-.1-.85-.28-.89-.66-2.1-1.53-3.63-2.63-1.76-1.25-3.45-2.32-5.08-3.2-1.89-1.04-4.09-1.94-6.62-2.69-2.52-.75-5.2-1.12-8.03-1.12-3.32,0-6.33.49-9.03,1.46-2.7.98-5.13,2.47-7.28,4.49-2.05,1.95-3.67,4.44-4.86,7.45-1.19,3.01-1.78,6.49-1.78,10.42,0,8.04,2.13,14.19,6.4,18.46,4.26,4.26,10.56,6.4,18.9,6.4.72,0,1.51-.02,2.37-.05.36-.01.71-.03,1.04-.05.75-.04,1.33-.67,1.33-1.42v-11.51c0-.79-.64-1.42-1.42-1.42h-11.66c-.79,0-1.42-.64-1.42-1.42v-10.88c0-.79.64-1.42,1.42-1.42h30.7c.79,0,1.42.64,1.42,1.42v33.48Z"/>
      <path class="cls-2" d="M370.87,77.22h-49.74c-.79,0-1.42-.64-1.42-1.42V5.94c0-.79.64-1.42,1.42-1.42h49.74c.79,0,1.42.64,1.42,1.42v11.22c0,.79-.64,1.42-1.42,1.42h-31.09c-.79,0-1.42.64-1.42,1.42v9.71c0,.79.64,1.42,1.42,1.42h28.65c.79,0,1.42.64,1.42,1.42v11.22c0,.79-.64,1.42-1.42,1.42h-28.65c-.79,0-1.42.64-1.42,1.42v15.13c0,.79.64,1.42,1.42,1.42h31.09c.79,0,1.42.64,1.42,1.42v11.22c0,.79-.64,1.42-1.42,1.42Z"/>
      <path class="cls-2" d="M455.12,77.22h-19.28c-.45,0-.87-.21-1.14-.57l-18.93-25.51c-.27-.36-.69-.57-1.14-.57h-6.55c-.79,0-1.42.64-1.42,1.42v23.82c0,.79-.64,1.42-1.42,1.42h-15.81c-.79,0-1.42-.64-1.42-1.42V5.94c0-.79.64-1.42,1.42-1.42h30.02c4.3,0,7.99.24,11.08.73,3.09.49,5.99,1.55,8.69,3.17,2.73,1.63,4.91,3.74,6.52,6.32s2.42,5.83,2.42,9.74c0,5.37-1.25,9.75-3.74,13.13-2.22,3.01-5.28,5.58-9.19,7.69-.77.41-.96,1.43-.43,2.11l21.43,27.5c.73.93.06,2.3-1.12,2.3ZM428.78,26.78c0-1.82-.37-3.39-1.12-4.69-.75-1.3-2.03-2.33-3.86-3.08-1.27-.52-2.75-.84-4.44-.95-1.69-.11-3.66-.17-5.91-.17h-5.37c-.79,0-1.42.64-1.42,1.42v16.74c0,.79.64,1.42,1.42,1.42h4.34c2.99,0,5.5-.15,7.52-.44,2.02-.29,3.71-.96,5.08-2,1.3-1.01,2.25-2.12,2.86-3.34.6-1.22.9-2.86.9-4.91Z"/>
      <path class="cls-2" d="M533.27,78.63c-5.4,0-10.39-.8-14.97-2.39-4.57-1.59-8.5-3.97-11.79-7.13-3.29-3.16-5.83-7.1-7.64-11.82-1.81-4.72-2.71-10.17-2.71-16.36,0-5.76.86-10.99,2.59-15.67,1.73-4.69,4.23-8.71,7.52-12.06,3.16-3.22,7.07-5.71,11.74-7.47,4.67-1.76,9.77-2.64,15.31-2.64,3.06,0,5.82.17,8.28.51,2.46.34,4.73.79,6.81,1.34,2.18.62,4.16,1.31,5.93,2.08,1.43.62,2.71,1.2,3.86,1.74.49.23.81.73.81,1.28v15.31c0,.79-.64,1.42-1.42,1.42h-.21c-.33,0-.65-.11-.91-.33-.84-.7-1.86-1.52-3.05-2.44-1.38-1.07-2.95-2.12-4.71-3.16-1.79-1.04-3.73-1.91-5.81-2.62-2.08-.71-4.31-1.07-6.69-1.07-2.64,0-5.14.41-7.52,1.24-2.38.83-4.57,2.2-6.59,4.12-1.92,1.85-3.48,4.3-4.66,7.36-1.19,3.05-1.78,6.76-1.78,11.11s.64,8.35,1.93,11.4c1.29,3.05,2.91,5.46,4.86,7.21,1.99,1.79,4.2,3.06,6.64,3.83s4.85,1.14,7.23,1.14,4.53-.34,6.76-1.02c2.23-.68,4.29-1.6,6.18-2.77,1.59-.94,3.08-1.94,4.44-3.01,1.17-.91,2.16-1.72,2.97-2.42.26-.22.58-.35.93-.35h0c.79,0,1.42.64,1.42,1.42v15.04c0,.56-.34,1.08-.85,1.3-1.52.67-2.97,1.31-4.37,1.92-1.66.72-3.4,1.33-5.22,1.86-2.38.68-4.61,1.2-6.69,1.56-2.08.36-4.95.54-8.59.54Z"/>
      <path class="cls-2" d="M643.48,40.89c0,11.59-3.32,20.79-9.96,27.61-6.64,6.82-15.82,10.23-27.54,10.23s-20.85-3.41-27.49-10.23c-6.64-6.82-9.96-16.02-9.96-27.61s3.32-20.92,9.96-27.71,15.8-10.18,27.49-10.18,20.82,3.39,27.49,10.18c6.67,6.79,10.01,16.02,10.01,27.71ZM618.62,59.3c1.82-2.21,3.17-4.83,4.05-7.84.88-3.01,1.32-6.55,1.32-10.62,0-4.36-.5-8.07-1.51-11.13-1.01-3.06-2.33-5.53-3.96-7.42-1.66-1.95-3.57-3.37-5.74-4.25-2.17-.88-4.42-1.32-6.76-1.32s-4.61.42-6.71,1.27c-2.1.85-4.03,2.25-5.79,4.2-1.63,1.82-2.95,4.34-3.98,7.54-1.03,3.21-1.54,6.93-1.54,11.16s.5,8.02,1.49,11.06c.99,3.04,2.3,5.53,3.93,7.45,1.63,1.92,3.53,3.34,5.71,4.25,2.18.91,4.48,1.37,6.88,1.37s4.7-.46,6.88-1.39c2.18-.93,4.08-2.37,5.71-4.32Z"/>
      <path class="cls-2" d="M674.28,77.22h-15.42c-.79,0-1.42-.64-1.42-1.42v-16.35c0-.79.64-1.42,1.42-1.42h15.42c.79,0,1.42.64,1.42,1.42v16.35c0,.79-.64,1.42-1.42,1.42Z"/>
    </g>
    <g>
      <path class="cls-2" d="M64.21,53.95c0,3.52-.71,6.66-2.12,9.42-1.42,2.77-3.36,5.06-5.83,6.88-2.86,2.15-6.01,3.68-9.45,4.59-3.43.91-7.79,1.37-13.06,1.37H3.42c-.79,0-1.42-.64-1.42-1.42V4.94c0-.79.64-1.42,1.42-1.42h26.8c5.86,0,10.15.2,12.87.59,2.72.39,5.41,1.25,8.08,2.59,2.77,1.4,4.83,3.28,6.18,5.64,1.35,2.36,2.03,5.05,2.03,8.08,0,3.52-.93,6.62-2.78,9.3s-4.48,4.78-7.86,6.27v.39c4.75.94,8.52,2.9,11.3,5.86,2.78,2.96,4.17,6.87,4.17,11.72ZM40.18,24.07c0-1.2-.3-2.41-.9-3.61-.6-1.2-1.67-2.1-3.2-2.69-1.37-.52-3.07-.81-5.1-.85-2.03-.05-4.89-.07-8.57-.07h-.34c-.79,0-1.42.64-1.42,1.42v12.54c0,.79.64,1.42,1.42,1.42h1.51c2.96,0,5.48-.05,7.57-.15,2.08-.1,3.73-.42,4.93-.98,1.69-.75,2.8-1.72,3.32-2.91.52-1.19.78-2.56.78-4.13ZM44.72,53.66c0-2.31-.45-4.09-1.34-5.35-.89-1.25-2.41-2.19-4.56-2.81-1.46-.42-3.48-.65-6.04-.68-2.57-.03-5.25-.05-8.04-.05h-2.67c-.79,0-1.42.64-1.42,1.42v16.69h1.36c5.26,0,9.03-.02,11.31-.05,2.27-.03,4.37-.46,6.29-1.27,1.95-.81,3.29-1.9,4.02-3.25.73-1.35,1.1-2.91,1.1-4.66Z"/>
      <path class="cls-2" d="M141.84,49.9c0,8.98-2.73,15.87-8.2,20.65s-13.53,7.18-24.17,7.18-18.69-2.39-24.15-7.18c-5.45-4.79-8.18-11.65-8.18-20.61V4.94c0-.79.64-1.42,1.42-1.42h16c.79,0,1.42.64,1.42,1.42v43.94c0,5.05,1.06,8.81,3.17,11.28,2.12,2.47,5.55,3.71,10.3,3.71s8.11-1.19,10.28-3.56c2.16-2.38,3.25-6.18,3.25-11.43V4.94c0-.79.64-1.42,1.42-1.42h16c.79,0,1.42.64,1.42,1.42v44.96Z"/>
      <path class="cls-2" d="M226.48,76.22h-19.28c-.45,0-.87-.21-1.14-.57l-18.93-25.51c-.27-.36-.69-.57-1.14-.57h-6.55c-.79,0-1.42.64-1.42,1.42v23.82c0,.79-.64,1.42-1.42,1.42h-15.81c-.79,0-1.42-.64-1.42-1.42V4.94c0-.79.64-1.42,1.42-1.42h30.02c4.3,0,7.99.24,11.08.73,3.09.49,5.99,1.55,8.69,3.17,2.73,1.63,4.91,3.74,6.52,6.32s2.42,5.83,2.42,9.74c0,5.37-1.25,9.75-3.74,13.13-2.22,3.01-5.28,5.58-9.19,7.69-.77.41-.96,1.43-.43,2.11l21.43,27.5c.73.93.06,2.3-1.12,2.3ZM200.14,25.78c0-1.82-.37-3.39-1.12-4.69-.75-1.3-2.03-2.33-3.86-3.08-1.27-.52-2.75-.84-4.44-.95-1.69-.11-3.66-.17-5.91-.17h-5.37c-.79,0-1.42.64-1.42,1.42v16.74c0,.79.64,1.42,1.42,1.42h4.34c2.99,0,5.5-.15,7.52-.44,2.02-.29,3.71-.96,5.08-2,1.3-1.01,2.25-2.12,2.86-3.34.6-1.22.9-2.86.9-4.91Z"/>
      <path class="cls-2" d="M301.9,71.08c0,.59-.36,1.13-.92,1.33-3.13,1.15-7.14,2.3-12.02,3.44-5.37,1.25-10.73,1.88-16.06,1.88-12.37,0-22.05-3.36-29.05-10.08-7-6.72-10.5-16.01-10.5-27.86s3.53-20.4,10.6-27.32c7.06-6.92,16.91-10.38,29.54-10.38,4.79,0,9.34.43,13.67,1.29,4.11.82,8.65,2.4,13.63,4.76.5.24.82.74.82,1.29v14.72c0,.79-.64,1.42-1.42,1.42h-.21c-.31,0-.6-.1-.85-.28-.89-.66-2.1-1.53-3.63-2.63-1.76-1.25-3.45-2.32-5.08-3.2-1.89-1.04-4.09-1.94-6.62-2.69-2.52-.75-5.2-1.12-8.03-1.12-3.32,0-6.33.49-9.03,1.46-2.7.98-5.13,2.47-7.28,4.49-2.05,1.95-3.67,4.44-4.86,7.45-1.19,3.01-1.78,6.49-1.78,10.42,0,8.04,2.13,14.19,6.4,18.46,4.26,4.26,10.56,6.4,18.9,6.4.72,0,1.51-.02,2.37-.05.36-.01.71-.03,1.04-.05.75-.04,1.33-.67,1.33-1.42v-11.51c0-.79-.64-1.42-1.42-1.42h-11.66c-.79,0-1.42-.64-1.42-1.42v-10.88c0-.79.64-1.42,1.42-1.42h30.7c.79,0,1.42.64,1.42,1.42v33.48Z"/>
      <path class="cls-2" d="M369.87,76.22h-49.74c-.79,0-1.42-.64-1.42-1.42V4.94c0-.79.64-1.42,1.42-1.42h49.74c.79,0,1.42.64,1.42,1.42v11.22c0,.79-.64,1.42-1.42,1.42h-31.09c-.79,0-1.42.64-1.42,1.42v9.71c0,.79.64,1.42,1.42,1.42h28.65c.79,0,1.42.64,1.42,1.42v11.22c0,.79-.64,1.42-1.42,1.42h-28.65c-.79,0-1.42.64-1.42,1.42v15.13c0,.79.64,1.42,1.42,1.42h31.09c.79,0,1.42.64,1.42,1.42v11.22c0,.79-.64,1.42-1.42,1.42Z"/>
      <path class="cls-2" d="M454.12,76.22h-19.28c-.45,0-.87-.21-1.14-.57l-18.93-25.51c-.27-.36-.69-.57-1.14-.57h-6.55c-.79,0-1.42.64-1.42,1.42v23.82c0,.79-.64,1.42-1.42,1.42h-15.81c-.79,0-1.42-.64-1.42-1.42V4.94c0-.79.64-1.42,1.42-1.42h30.02c4.3,0,7.99.24,11.08.73,3.09.49,5.99,1.55,8.69,3.17,2.73,1.63,4.91,3.74,6.52,6.32s2.42,5.83,2.42,9.74c0,5.37-1.25,9.75-3.74,13.13-2.22,3.01-5.28,5.58-9.19,7.69-.77.41-.96,1.43-.43,2.11l21.43,27.5c.73.93.06,2.3-1.12,2.3ZM427.78,25.78c0-1.82-.37-3.39-1.12-4.69-.75-1.3-2.03-2.33-3.86-3.08-1.27-.52-2.75-.84-4.44-.95-1.69-.11-3.66-.17-5.91-.17h-5.37c-.79,0-1.42.64-1.42,1.42v16.74c0,.79.64,1.42,1.42,1.42h4.34c2.99,0,5.5-.15,7.52-.44,2.02-.29,3.71-.96,5.08-2,1.3-1.01,2.25-2.12,2.86-3.34.6-1.22.9-2.86.9-4.91Z"/>
      <path class="cls-2" d="M532.27,77.63c-5.4,0-10.39-.8-14.97-2.39-4.57-1.59-8.5-3.97-11.79-7.13-3.29-3.16-5.83-7.1-7.64-11.82-1.81-4.72-2.71-10.17-2.71-16.36,0-5.76.86-10.99,2.59-15.67,1.73-4.69,4.23-8.71,7.52-12.06,3.16-3.22,7.07-5.71,11.74-7.47,4.67-1.76,9.77-2.64,15.31-2.64,3.06,0,5.82.17,8.28.51,2.46.34,4.73.79,6.81,1.34,2.18.62,4.16,1.31,5.93,2.08,1.43.62,2.71,1.2,3.86,1.74.49.23.81.73.81,1.28v15.31c0,.79-.64,1.42-1.42,1.42h-.21c-.33,0-.65-.11-.91-.33-.84-.7-1.86-1.52-3.05-2.44-1.38-1.07-2.95-2.12-4.71-3.16-1.79-1.04-3.73-1.91-5.81-2.62-2.08-.71-4.31-1.07-6.69-1.07-2.64,0-5.14.41-7.52,1.24-2.38.83-4.57,2.2-6.59,4.12-1.92,1.85-3.48,4.3-4.66,7.36-1.19,3.05-1.78,6.76-1.78,11.11s.64,8.35,1.93,11.4c1.29,3.05,2.91,5.46,4.86,7.21,1.99,1.79,4.2,3.06,6.64,3.83s4.85,1.14,7.23,1.14,4.53-.34,6.76-1.02c2.23-.68,4.29-1.6,6.18-2.77,1.59-.94,3.08-1.94,4.44-3.01,1.17-.91,2.16-1.72,2.97-2.42.26-.22.58-.35.93-.35h0c.79,0,1.42.64,1.42,1.42v15.04c0,.56-.34,1.08-.85,1.3-1.52.67-2.97,1.31-4.37,1.92-1.66.72-3.4,1.33-5.22,1.86-2.38.68-4.61,1.2-6.69,1.56-2.08.36-4.95.54-8.59.54Z"/>
      <path class="cls-2" d="M642.48,39.89c0,11.59-3.32,20.79-9.96,27.61-6.64,6.82-15.82,10.23-27.54,10.23s-20.85-3.41-27.49-10.23c-6.64-6.82-9.96-16.02-9.96-27.61s3.32-20.92,9.96-27.71,15.8-10.18,27.49-10.18,20.82,3.39,27.49,10.18c6.67,6.79,10.01,16.02,10.01,27.71ZM617.62,58.3c1.82-2.21,3.17-4.83,4.05-7.84.88-3.01,1.32-6.55,1.32-10.62,0-4.36-.5-8.07-1.51-11.13-1.01-3.06-2.33-5.53-3.96-7.42-1.66-1.95-3.57-3.37-5.74-4.25-2.17-.88-4.42-1.32-6.76-1.32s-4.61.42-6.71,1.27c-2.1.85-4.03,2.25-5.79,4.2-1.63,1.82-2.95,4.34-3.98,7.54-1.03,3.21-1.54,6.93-1.54,11.16s.5,8.02,1.49,11.06c.99,3.04,2.3,5.53,3.93,7.45,1.63,1.92,3.53,3.34,5.71,4.25,2.18.91,4.48,1.37,6.88,1.37s4.7-.46,6.88-1.39c2.18-.93,4.08-2.37,5.71-4.32Z"/>
      <path class="cls-2" d="M673.28,76.22h-15.42c-.79,0-1.42-.64-1.42-1.42v-16.35c0-.79.64-1.42,1.42-1.42h15.42c.79,0,1.42.64,1.42,1.42v16.35c0,.79-.64,1.42-1.42,1.42Z"/>
    </g>
    <g>
      <path class="cls-2" d="M63.21,52.95c0,3.52-.71,6.66-2.12,9.42-1.42,2.77-3.36,5.06-5.83,6.88-2.86,2.15-6.01,3.68-9.45,4.59-3.43.91-7.79,1.37-13.06,1.37H2.42c-.79,0-1.42-.64-1.42-1.42V3.94c0-.79.64-1.42,1.42-1.42h26.8c5.86,0,10.15.2,12.87.59,2.72.39,5.41,1.25,8.08,2.59,2.77,1.4,4.83,3.28,6.18,5.64,1.35,2.36,2.03,5.05,2.03,8.08,0,3.52-.93,6.62-2.78,9.3s-4.48,4.78-7.86,6.27v.39c4.75.94,8.52,2.9,11.3,5.86,2.78,2.96,4.17,6.87,4.17,11.72ZM39.18,23.07c0-1.2-.3-2.41-.9-3.61-.6-1.2-1.67-2.1-3.2-2.69-1.37-.52-3.07-.81-5.1-.85-2.03-.05-4.89-.07-8.57-.07h-.34c-.79,0-1.42.64-1.42,1.42v12.54c0,.79.64,1.42,1.42,1.42h1.51c2.96,0,5.48-.05,7.57-.15,2.08-.1,3.73-.42,4.93-.98,1.69-.75,2.8-1.72,3.32-2.91.52-1.19.78-2.56.78-4.13ZM43.72,52.66c0-2.31-.45-4.09-1.34-5.35-.89-1.25-2.41-2.19-4.56-2.81-1.46-.42-3.48-.65-6.04-.68-2.57-.03-5.25-.05-8.04-.05h-2.67c-.79,0-1.42.64-1.42,1.42v16.69h1.36c5.26,0,9.03-.02,11.31-.05,2.27-.03,4.37-.46,6.29-1.27,1.95-.81,3.29-1.9,4.02-3.25.73-1.35,1.1-2.91,1.1-4.66Z"/>
      <path class="cls-2" d="M140.84,48.9c0,8.98-2.73,15.87-8.2,20.65s-13.53,7.18-24.17,7.18-18.69-2.39-24.15-7.18c-5.45-4.79-8.18-11.65-8.18-20.61V3.94c0-.79.64-1.42,1.42-1.42h16c.79,0,1.42.64,1.42,1.42v43.94c0,5.05,1.06,8.81,3.17,11.28,2.12,2.47,5.55,3.71,10.3,3.71s8.11-1.19,10.28-3.56c2.16-2.38,3.25-6.18,3.25-11.43V3.94c0-.79.64-1.42,1.42-1.42h16c.79,0,1.42.64,1.42,1.42v44.96Z"/>
      <path class="cls-2" d="M225.48,75.22h-19.28c-.45,0-.87-.21-1.14-.57l-18.93-25.51c-.27-.36-.69-.57-1.14-.57h-6.55c-.79,0-1.42.64-1.42,1.42v23.82c0,.79-.64,1.42-1.42,1.42h-15.81c-.79,0-1.42-.64-1.42-1.42V3.94c0-.79.64-1.42,1.42-1.42h30.02c4.3,0,7.99.24,11.08.73,3.09.49,5.99,1.55,8.69,3.17,2.73,1.63,4.91,3.74,6.52,6.32s2.42,5.83,2.42,9.74c0,5.37-1.25,9.75-3.74,13.13-2.22,3.01-5.28,5.58-9.19,7.69-.77.41-.96,1.43-.43,2.11l21.43,27.5c.73.93.06,2.3-1.12,2.3ZM199.14,24.78c0-1.82-.37-3.39-1.12-4.69-.75-1.3-2.03-2.33-3.86-3.08-1.27-.52-2.75-.84-4.44-.95-1.69-.11-3.66-.17-5.91-.17h-5.37c-.79,0-1.42.64-1.42,1.42v16.74c0,.79.64,1.42,1.42,1.42h4.34c2.99,0,5.5-.15,7.52-.44,2.02-.29,3.71-.96,5.08-2,1.3-1.01,2.25-2.12,2.86-3.34.6-1.22.9-2.86.9-4.91Z"/>
      <path class="cls-2" d="M300.9,70.08c0,.59-.36,1.13-.92,1.33-3.13,1.15-7.14,2.3-12.02,3.44-5.37,1.25-10.73,1.88-16.06,1.88-12.37,0-22.05-3.36-29.05-10.08-7-6.72-10.5-16.01-10.5-27.86s3.53-20.4,10.6-27.32c7.06-6.92,16.91-10.38,29.54-10.38,4.79,0,9.34.43,13.67,1.29,4.11.82,8.65,2.4,13.63,4.76.5.24.82.74.82,1.29v14.72c0,.79-.64,1.42-1.42,1.42h-.21c-.31,0-.6-.1-.85-.28-.89-.66-2.1-1.53-3.63-2.63-1.76-1.25-3.45-2.32-5.08-3.2-1.89-1.04-4.09-1.94-6.62-2.69-2.52-.75-5.2-1.12-8.03-1.12-3.32,0-6.33.49-9.03,1.46-2.7.98-5.13,2.47-7.28,4.49-2.05,1.95-3.67,4.44-4.86,7.45-1.19,3.01-1.78,6.49-1.78,10.42,0,8.04,2.13,14.19,6.4,18.46,4.26,4.26,10.56,6.4,18.9,6.4.72,0,1.51-.02,2.37-.05.36-.01.71-.03,1.04-.05.75-.04,1.33-.67,1.33-1.42v-11.51c0-.79-.64-1.42-1.42-1.42h-11.66c-.79,0-1.42-.64-1.42-1.42v-10.88c0-.79.64-1.42,1.42-1.42h30.7c.79,0,1.42.64,1.42,1.42v33.48Z"/>
      <path class="cls-2" d="M368.87,75.22h-49.74c-.79,0-1.42-.64-1.42-1.42V3.94c0-.79.64-1.42,1.42-1.42h49.74c.79,0,1.42.64,1.42,1.42v11.22c0,.79-.64,1.42-1.42,1.42h-31.09c-.79,0-1.42.64-1.42,1.42v9.71c0,.79.64,1.42,1.42,1.42h28.65c.79,0,1.42.64,1.42,1.42v11.22c0,.79-.64,1.42-1.42,1.42h-28.65c-.79,0-1.42.64-1.42,1.42v15.13c0,.79.64,1.42,1.42,1.42h31.09c.79,0,1.42.64,1.42,1.42v11.22c0,.79-.64,1.42-1.42,1.42Z"/>
      <path class="cls-2" d="M453.12,75.22h-19.28c-.45,0-.87-.21-1.14-.57l-18.93-25.51c-.27-.36-.69-.57-1.14-.57h-6.55c-.79,0-1.42.64-1.42,1.42v23.82c0,.79-.64,1.42-1.42,1.42h-15.81c-.79,0-1.42-.64-1.42-1.42V3.94c0-.79.64-1.42,1.42-1.42h30.02c4.3,0,7.99.24,11.08.73,3.09.49,5.99,1.55,8.69,3.17,2.73,1.63,4.91,3.74,6.52,6.32s2.42,5.83,2.42,9.74c0,5.37-1.25,9.75-3.74,13.13-2.22,3.01-5.28,5.58-9.19,7.69-.77.41-.96,1.43-.43,2.11l21.43,27.5c.73.93.06,2.3-1.12,2.3ZM426.78,24.78c0-1.82-.37-3.39-1.12-4.69-.75-1.3-2.03-2.33-3.86-3.08-1.27-.52-2.75-.84-4.44-.95-1.69-.11-3.66-.17-5.91-.17h-5.37c-.79,0-1.42.64-1.42,1.42v16.74c0,.79.64,1.42,1.42,1.42h4.34c2.99,0,5.5-.15,7.52-.44,2.02-.29,3.71-.96,5.08-2,1.3-1.01,2.25-2.12,2.86-3.34.6-1.22.9-2.86.9-4.91Z"/>
      <path class="cls-2" d="M531.27,76.63c-5.4,0-10.39-.8-14.97-2.39-4.57-1.59-8.5-3.97-11.79-7.13-3.29-3.16-5.83-7.1-7.64-11.82-1.81-4.72-2.71-10.17-2.71-16.36,0-5.76.86-10.99,2.59-15.67,1.73-4.69,4.23-8.71,7.52-12.06,3.16-3.22,7.07-5.71,11.74-7.47,4.67-1.76,9.77-2.64,15.31-2.64,3.06,0,5.82.17,8.28.51,2.46.34,4.73.79,6.81,1.34,2.18.62,4.16,1.31,5.93,2.08,1.43.62,2.71,1.2,3.86,1.74.49.23.81.73.81,1.28v15.31c0,.79-.64,1.42-1.42,1.42h-.21c-.33,0-.65-.11-.91-.33-.84-.7-1.86-1.52-3.05-2.44-1.38-1.07-2.95-2.12-4.71-3.16-1.79-1.04-3.73-1.91-5.81-2.62-2.08-.71-4.31-1.07-6.69-1.07-2.64,0-5.14.41-7.52,1.24-2.38.83-4.57,2.2-6.59,4.12-1.92,1.85-3.48,4.3-4.66,7.36-1.19,3.05-1.78,6.76-1.78,11.11s.64,8.35,1.93,11.4c1.29,3.05,2.91,5.46,4.86,7.21,1.99,1.79,4.2,3.06,6.64,3.83s4.85,1.14,7.23,1.14,4.53-.34,6.76-1.02c2.23-.68,4.29-1.6,6.18-2.77,1.59-.94,3.08-1.94,4.44-3.01,1.17-.91,2.16-1.72,2.97-2.42.26-.22.58-.35.93-.35h0c.79,0,1.42.64,1.42,1.42v15.04c0,.56-.34,1.08-.85,1.3-1.52.67-2.97,1.31-4.37,1.92-1.66.72-3.4,1.33-5.22,1.86-2.38.68-4.61,1.2-6.69,1.56-2.08.36-4.95.54-8.59.54Z"/>
      <path class="cls-2" d="M641.48,38.89c0,11.59-3.32,20.79-9.96,27.61-6.64,6.82-15.82,10.23-27.54,10.23s-20.85-3.41-27.49-10.23c-6.64-6.82-9.96-16.02-9.96-27.61s3.32-20.92,9.96-27.71,15.8-10.18,27.49-10.18,20.82,3.39,27.49,10.18c6.67,6.79,10.01,16.02,10.01,27.71ZM616.62,57.3c1.82-2.21,3.17-4.83,4.05-7.84.88-3.01,1.32-6.55,1.32-10.62,0-4.36-.5-8.07-1.51-11.13-1.01-3.06-2.33-5.53-3.96-7.42-1.66-1.95-3.57-3.37-5.74-4.25-2.17-.88-4.42-1.32-6.76-1.32s-4.61.42-6.71,1.27c-2.1.85-4.03,2.25-5.79,4.2-1.63,1.82-2.95,4.34-3.98,7.54-1.03,3.21-1.54,6.93-1.54,11.16s.5,8.02,1.49,11.06c.99,3.04,2.3,5.53,3.93,7.45,1.63,1.92,3.53,3.34,5.71,4.25,2.18.91,4.48,1.37,6.88,1.37s4.7-.46,6.88-1.39c2.18-.93,4.08-2.37,5.71-4.32Z"/>
      <path class="cls-2" d="M672.28,75.22h-15.42c-.79,0-1.42-.64-1.42-1.42v-16.35c0-.79.64-1.42,1.42-1.42h15.42c.79,0,1.42.64,1.42,1.42v16.35c0,.79-.64,1.42-1.42,1.42Z"/>
    </g>
    <g>
      <path class="cls-2" d="M62.21,51.95c0,3.52-.71,6.66-2.12,9.42-1.42,2.77-3.36,5.06-5.83,6.88-2.86,2.15-6.01,3.68-9.45,4.59-3.43.91-7.79,1.37-13.06,1.37H1.42c-.79,0-1.42-.64-1.42-1.42V2.94c0-.79.64-1.42,1.42-1.42h26.8c5.86,0,10.15.2,12.87.59,2.72.39,5.41,1.25,8.08,2.59,2.77,1.4,4.83,3.28,6.18,5.64,1.35,2.36,2.03,5.05,2.03,8.08,0,3.52-.93,6.62-2.78,9.3s-4.48,4.78-7.86,6.27v.39c4.75.94,8.52,2.9,11.3,5.86,2.78,2.96,4.17,6.87,4.17,11.72ZM38.18,22.07c0-1.2-.3-2.41-.9-3.61-.6-1.2-1.67-2.1-3.2-2.69-1.37-.52-3.07-.81-5.1-.85-2.03-.05-4.89-.07-8.57-.07h-.34c-.79,0-1.42.64-1.42,1.42v12.54c0,.79.64,1.42,1.42,1.42h1.51c2.96,0,5.48-.05,7.57-.15,2.08-.1,3.73-.42,4.93-.98,1.69-.75,2.8-1.72,3.32-2.91.52-1.19.78-2.56.78-4.13ZM42.72,51.66c0-2.31-.45-4.09-1.34-5.35-.89-1.25-2.41-2.19-4.56-2.81-1.46-.42-3.48-.65-6.04-.68-2.57-.03-5.25-.05-8.04-.05h-2.67c-.79,0-1.42.64-1.42,1.42v16.69h1.36c5.26,0,9.03-.02,11.31-.05,2.27-.03,4.37-.46,6.29-1.27,1.95-.81,3.29-1.9,4.02-3.25.73-1.35,1.1-2.91,1.1-4.66Z"/>
      <path class="cls-2" d="M139.84,47.9c0,8.98-2.73,15.87-8.2,20.65s-13.53,7.18-24.17,7.18-18.69-2.39-24.15-7.18c-5.45-4.79-8.18-11.65-8.18-20.61V2.94c0-.79.64-1.42,1.42-1.42h16c.79,0,1.42.64,1.42,1.42v43.94c0,5.05,1.06,8.81,3.17,11.28,2.12,2.47,5.55,3.71,10.3,3.71s8.11-1.19,10.28-3.56c2.16-2.38,3.25-6.18,3.25-11.43V2.94c0-.79.64-1.42,1.42-1.42h16c.79,0,1.42.64,1.42,1.42v44.96Z"/>
      <path class="cls-2" d="M224.48,74.22h-19.28c-.45,0-.87-.21-1.14-.57l-18.93-25.51c-.27-.36-.69-.57-1.14-.57h-6.55c-.79,0-1.42.64-1.42,1.42v23.82c0,.79-.64,1.42-1.42,1.42h-15.81c-.79,0-1.42-.64-1.42-1.42V2.94c0-.79.64-1.42,1.42-1.42h30.02c4.3,0,7.99.24,11.08.73,3.09.49,5.99,1.55,8.69,3.17,2.73,1.63,4.91,3.74,6.52,6.32s2.42,5.83,2.42,9.74c0,5.37-1.25,9.75-3.74,13.13-2.22,3.01-5.28,5.58-9.19,7.69-.77.41-.96,1.43-.43,2.11l21.43,27.5c.73.93.06,2.3-1.12,2.3ZM198.14,23.78c0-1.82-.37-3.39-1.12-4.69-.75-1.3-2.03-2.33-3.86-3.08-1.27-.52-2.75-.84-4.44-.95-1.69-.11-3.66-.17-5.91-.17h-5.37c-.79,0-1.42.64-1.42,1.42v16.74c0,.79.64,1.42,1.42,1.42h4.34c2.99,0,5.5-.15,7.52-.44,2.02-.29,3.71-.96,5.08-2,1.3-1.01,2.25-2.12,2.86-3.34.6-1.22.9-2.86.9-4.91Z"/>
      <path class="cls-2" d="M299.9,69.08c0,.59-.36,1.13-.92,1.33-3.13,1.15-7.14,2.3-12.02,3.44-5.37,1.25-10.73,1.88-16.06,1.88-12.37,0-22.05-3.36-29.05-10.08-7-6.72-10.5-16.01-10.5-27.86s3.53-20.4,10.6-27.32C249.01,3.56,258.85.1,271.48.1c4.79,0,9.34.43,13.67,1.29,4.11.82,8.65,2.4,13.63,4.76.5.24.82.74.82,1.29v14.72c0,.79-.64,1.42-1.42,1.42h-.21c-.31,0-.6-.1-.85-.28-.89-.66-2.1-1.53-3.63-2.63-1.76-1.25-3.45-2.32-5.08-3.2-1.89-1.04-4.09-1.94-6.62-2.69-2.52-.75-5.2-1.12-8.03-1.12-3.32,0-6.33.49-9.03,1.46-2.7.98-5.13,2.47-7.28,4.49-2.05,1.95-3.67,4.44-4.86,7.45-1.19,3.01-1.78,6.49-1.78,10.42,0,8.04,2.13,14.19,6.4,18.46,4.26,4.26,10.56,6.4,18.9,6.4.72,0,1.51-.02,2.37-.05.36-.01.71-.03,1.04-.05.75-.04,1.33-.67,1.33-1.42v-11.51c0-.79-.64-1.42-1.42-1.42h-11.66c-.79,0-1.42-.64-1.42-1.42v-10.88c0-.79.64-1.42,1.42-1.42h30.7c.79,0,1.42.64,1.42,1.42v33.48Z"/>
      <path class="cls-2" d="M367.87,74.22h-49.74c-.79,0-1.42-.64-1.42-1.42V2.94c0-.79.64-1.42,1.42-1.42h49.74c.79,0,1.42.64,1.42,1.42v11.22c0,.79-.64,1.42-1.42,1.42h-31.09c-.79,0-1.42.64-1.42,1.42v9.71c0,.79.64,1.42,1.42,1.42h28.65c.79,0,1.42.64,1.42,1.42v11.22c0,.79-.64,1.42-1.42,1.42h-28.65c-.79,0-1.42.64-1.42,1.42v15.13c0,.79.64,1.42,1.42,1.42h31.09c.79,0,1.42.64,1.42,1.42v11.22c0,.79-.64,1.42-1.42,1.42Z"/>
      <path class="cls-2" d="M452.12,74.22h-19.28c-.45,0-.87-.21-1.14-.57l-18.93-25.51c-.27-.36-.69-.57-1.14-.57h-6.55c-.79,0-1.42.64-1.42,1.42v23.82c0,.79-.64,1.42-1.42,1.42h-15.81c-.79,0-1.42-.64-1.42-1.42V2.94c0-.79.64-1.42,1.42-1.42h30.02c4.3,0,7.99.24,11.08.73,3.09.49,5.99,1.55,8.69,3.17,2.73,1.63,4.91,3.74,6.52,6.32s2.42,5.83,2.42,9.74c0,5.37-1.25,9.75-3.74,13.13-2.22,3.01-5.28,5.58-9.19,7.69-.77.41-.96,1.43-.43,2.11l21.43,27.5c.73.93.06,2.3-1.12,2.3ZM425.78,23.78c0-1.82-.37-3.39-1.12-4.69-.75-1.3-2.03-2.33-3.86-3.08-1.27-.52-2.75-.84-4.44-.95-1.69-.11-3.66-.17-5.91-.17h-5.37c-.79,0-1.42.64-1.42,1.42v16.74c0,.79.64,1.42,1.42,1.42h4.34c2.99,0,5.5-.15,7.52-.44,2.02-.29,3.71-.96,5.08-2,1.3-1.01,2.25-2.12,2.86-3.34.6-1.22.9-2.86.9-4.91Z"/>
      <path class="cls-2" d="M530.27,75.63c-5.4,0-10.39-.8-14.97-2.39-4.57-1.59-8.5-3.97-11.79-7.13-3.29-3.16-5.83-7.1-7.64-11.82-1.81-4.72-2.71-10.17-2.71-16.36,0-5.76.86-10.99,2.59-15.67,1.73-4.69,4.23-8.71,7.52-12.06,3.16-3.22,7.07-5.71,11.74-7.47,4.67-1.76,9.77-2.64,15.31-2.64,3.06,0,5.82.17,8.28.51,2.46.34,4.73.79,6.81,1.34,2.18.62,4.16,1.31,5.93,2.08,1.43.62,2.71,1.2,3.86,1.74.49.23.81.73.81,1.28v15.31c0,.79-.64,1.42-1.42,1.42h-.21c-.33,0-.65-.11-.91-.33-.84-.7-1.86-1.52-3.05-2.44-1.38-1.07-2.95-2.12-4.71-3.16-1.79-1.04-3.73-1.91-5.81-2.62-2.08-.71-4.31-1.07-6.69-1.07-2.64,0-5.14.41-7.52,1.24-2.38.83-4.57,2.2-6.59,4.12-1.92,1.85-3.48,4.3-4.66,7.36-1.19,3.05-1.78,6.76-1.78,11.11s.64,8.35,1.93,11.4c1.29,3.05,2.91,5.46,4.86,7.21,1.99,1.79,4.2,3.06,6.64,3.83s4.85,1.14,7.23,1.14,4.53-.34,6.76-1.02c2.23-.68,4.29-1.6,6.18-2.77,1.59-.94,3.08-1.94,4.44-3.01,1.17-.91,2.16-1.72,2.97-2.42.26-.22.58-.35.93-.35h0c.79,0,1.42.64,1.42,1.42v15.04c0,.56-.34,1.08-.85,1.3-1.52.67-2.97,1.31-4.37,1.92-1.66.72-3.4,1.33-5.22,1.86-2.38.68-4.61,1.2-6.69,1.56-2.08.36-4.95.54-8.59.54Z"/>
      <path class="cls-2" d="M640.48,37.89c0,11.59-3.32,20.79-9.96,27.61-6.64,6.82-15.82,10.23-27.54,10.23s-20.85-3.41-27.49-10.23c-6.64-6.82-9.96-16.02-9.96-27.61s3.32-20.92,9.96-27.71,15.8-10.18,27.49-10.18,20.82,3.39,27.49,10.18c6.67,6.79,10.01,16.02,10.01,27.71ZM615.62,56.3c1.82-2.21,3.17-4.83,4.05-7.84.88-3.01,1.32-6.55,1.32-10.62,0-4.36-.5-8.07-1.51-11.13-1.01-3.06-2.33-5.53-3.96-7.42-1.66-1.95-3.57-3.37-5.74-4.25-2.17-.88-4.42-1.32-6.76-1.32s-4.61.42-6.71,1.27c-2.1.85-4.03,2.25-5.79,4.2-1.63,1.82-2.95,4.34-3.98,7.54-1.03,3.21-1.54,6.93-1.54,11.16s.5,8.02,1.49,11.06c.99,3.04,2.3,5.53,3.93,7.45,1.63,1.92,3.53,3.34,5.71,4.25,2.18.91,4.48,1.37,6.88,1.37s4.7-.46,6.88-1.39c2.18-.93,4.08-2.37,5.71-4.32Z"/>
      <path class="cls-2" d="M671.28,74.22h-15.42c-.79,0-1.42-.64-1.42-1.42v-16.35c0-.79.64-1.42,1.42-1.42h15.42c.79,0,1.42.64,1.42,1.42v16.35c0,.79-.64,1.42-1.42,1.42Z"/>
    </g>
  </g>
  <g>
    <path class="cls-3" d="M62.21,51.95c0,3.52-.71,6.66-2.12,9.42-1.42,2.77-3.36,5.06-5.83,6.88-2.86,2.15-6.01,3.68-9.45,4.59-3.43.91-7.79,1.37-13.06,1.37H1.42c-.79,0-1.42-.64-1.42-1.42V2.94c0-.79.64-1.42,1.42-1.42h26.8c5.86,0,10.15.2,12.87.59,2.72.39,5.41,1.25,8.08,2.59,2.77,1.4,4.83,3.28,6.18,5.64,1.35,2.36,2.03,5.05,2.03,8.08,0,3.52-.93,6.62-2.78,9.3s-4.48,4.78-7.86,6.27v.39c4.75.94,8.52,2.9,11.3,5.86,2.78,2.96,4.17,6.87,4.17,11.72ZM38.18,22.07c0-1.2-.3-2.41-.9-3.61-.6-1.2-1.67-2.1-3.2-2.69-1.37-.52-3.07-.81-5.1-.85-2.03-.05-4.89-.07-8.57-.07h-.34c-.79,0-1.42.64-1.42,1.42v12.54c0,.79.64,1.42,1.42,1.42h1.51c2.96,0,5.48-.05,7.57-.15,2.08-.1,3.73-.42,4.93-.98,1.69-.75,2.8-1.72,3.32-2.91.52-1.19.78-2.56.78-4.13ZM42.72,51.66c0-2.31-.45-4.09-1.34-5.35-.89-1.25-2.41-2.19-4.56-2.81-1.46-.42-3.48-.65-6.04-.68-2.57-.03-5.25-.05-8.04-.05h-2.67c-.79,0-1.42.64-1.42,1.42v16.69h1.36c5.26,0,9.03-.02,11.31-.05,2.27-.03,4.37-.46,6.29-1.27,1.95-.81,3.29-1.9,4.02-3.25.73-1.35,1.1-2.91,1.1-4.66Z"/>
    <path class="cls-3" d="M139.84,47.9c0,8.98-2.73,15.87-8.2,20.65s-13.53,7.18-24.17,7.18-18.69-2.39-24.15-7.18c-5.45-4.79-8.18-11.65-8.18-20.61V2.94c0-.79.64-1.42,1.42-1.42h16c.79,0,1.42.64,1.42,1.42v43.94c0,5.05,1.06,8.81,3.17,11.28,2.12,2.47,5.55,3.71,10.3,3.71s8.11-1.19,10.28-3.56c2.16-2.38,3.25-6.18,3.25-11.43V2.94c0-.79.64-1.42,1.42-1.42h16c.79,0,1.42.64,1.42,1.42v44.96Z"/>
    <path class="cls-3" d="M224.48,74.22h-19.28c-.45,0-.87-.21-1.14-.57l-18.93-25.51c-.27-.36-.69-.57-1.14-.57h-6.55c-.79,0-1.42.64-1.42,1.42v23.82c0,.79-.64,1.42-1.42,1.42h-15.81c-.79,0-1.42-.64-1.42-1.42V2.94c0-.79.64-1.42,1.42-1.42h30.02c4.3,0,7.99.24,11.08.73,3.09.49,5.99,1.55,8.69,3.17,2.73,1.63,4.91,3.74,6.52,6.32s2.42,5.83,2.42,9.74c0,5.37-1.25,9.75-3.74,13.13-2.22,3.01-5.28,5.58-9.19,7.69-.77.41-.96,1.43-.43,2.11l21.43,27.5c.73.93.06,2.3-1.12,2.3ZM198.14,23.78c0-1.82-.37-3.39-1.12-4.69-.75-1.3-2.03-2.33-3.86-3.08-1.27-.52-2.75-.84-4.44-.95-1.69-.11-3.66-.17-5.91-.17h-5.37c-.79,0-1.42.64-1.42,1.42v16.74c0,.79.64,1.42,1.42,1.42h4.34c2.99,0,5.5-.15,7.52-.44,2.02-.29,3.71-.96,5.08-2,1.3-1.01,2.25-2.12,2.86-3.34.6-1.22.9-2.86.9-4.91Z"/>
    <path class="cls-3" d="M299.9,69.08c0,.59-.36,1.13-.92,1.33-3.13,1.15-7.14,2.3-12.02,3.44-5.37,1.25-10.73,1.88-16.06,1.88-12.37,0-22.05-3.36-29.05-10.08-7-6.72-10.5-16.01-10.5-27.86s3.53-20.4,10.6-27.32C249.01,3.56,258.85.1,271.48.1c4.79,0,9.34.43,13.67,1.29,4.11.82,8.65,2.4,13.63,4.76.5.24.82.74.82,1.29v14.72c0,.79-.64,1.42-1.42,1.42h-.21c-.31,0-.6-.1-.85-.28-.89-.66-2.1-1.53-3.63-2.63-1.76-1.25-3.45-2.32-5.08-3.2-1.89-1.04-4.09-1.94-6.62-2.69-2.52-.75-5.2-1.12-8.03-1.12-3.32,0-6.33.49-9.03,1.46-2.7.98-5.13,2.47-7.28,4.49-2.05,1.95-3.67,4.44-4.86,7.45-1.19,3.01-1.78,6.49-1.78,10.42,0,8.04,2.13,14.19,6.4,18.46,4.26,4.26,10.56,6.4,18.9,6.4.72,0,1.51-.02,2.37-.05.36-.01.71-.03,1.04-.05.75-.04,1.33-.67,1.33-1.42v-11.51c0-.79-.64-1.42-1.42-1.42h-11.66c-.79,0-1.42-.64-1.42-1.42v-10.88c0-.79.64-1.42,1.42-1.42h30.7c.79,0,1.42.64,1.42,1.42v33.48Z"/>
    <path class="cls-3" d="M367.87,74.22h-49.74c-.79,0-1.42-.64-1.42-1.42V2.94c0-.79.64-1.42,1.42-1.42h49.74c.79,0,1.42.64,1.42,1.42v11.22c0,.79-.64,1.42-1.42,1.42h-31.09c-.79,0-1.42.64-1.42,1.42v9.71c0,.79.64,1.42,1.42,1.42h28.65c.79,0,1.42.64,1.42,1.42v11.22c0,.79-.64,1.42-1.42,1.42h-28.65c-.79,0-1.42.64-1.42,1.42v15.13c0,.79.64,1.42,1.42,1.42h31.09c.79,0,1.42.64,1.42,1.42v11.22c0,.79-.64,1.42-1.42,1.42Z"/>
    <path class="cls-3" d="M452.12,74.22h-19.28c-.45,0-.87-.21-1.14-.57l-18.93-25.51c-.27-.36-.69-.57-1.14-.57h-6.55c-.79,0-1.42.64-1.42,1.42v23.82c0,.79-.64,1.42-1.42,1.42h-15.81c-.79,0-1.42-.64-1.42-1.42V2.94c0-.79.64-1.42,1.42-1.42h30.02c4.3,0,7.99.24,11.08.73,3.09.49,5.99,1.55,8.69,3.17,2.73,1.63,4.91,3.74,6.52,6.32s2.42,5.83,2.42,9.74c0,5.37-1.25,9.75-3.74,13.13-2.22,3.01-5.28,5.58-9.19,7.69-.77.41-.96,1.43-.43,2.11l21.43,27.5c.73.93.06,2.3-1.12,2.3ZM425.78,23.78c0-1.82-.37-3.39-1.12-4.69-.75-1.3-2.03-2.33-3.86-3.08-1.27-.52-2.75-.84-4.44-.95-1.69-.11-3.66-.17-5.91-.17h-5.37c-.79,0-1.42.64-1.42,1.42v16.74c0,.79.64,1.42,1.42,1.42h4.34c2.99,0,5.5-.15,7.52-.44,2.02-.29,3.71-.96,5.08-2,1.3-1.01,2.25-2.12,2.86-3.34.6-1.22.9-2.86.9-4.91Z"/>
    <path class="cls-3" d="M530.27,75.63c-5.4,0-10.39-.8-14.97-2.39-4.57-1.59-8.5-3.97-11.79-7.13-3.29-3.16-5.83-7.1-7.64-11.82-1.81-4.72-2.71-10.17-2.71-16.36,0-5.76.86-10.99,2.59-15.67,1.73-4.69,4.23-8.71,7.52-12.06,3.16-3.22,7.07-5.71,11.74-7.47,4.67-1.76,9.77-2.64,15.31-2.64,3.06,0,5.82.17,8.28.51,2.46.34,4.73.79,6.81,1.34,2.18.62,4.16,1.31,5.93,2.08,1.43.62,2.71,1.2,3.86,1.74.49.23.81.73.81,1.28v15.31c0,.79-.64,1.42-1.42,1.42h-.21c-.33,0-.65-.11-.91-.33-.84-.7-1.86-1.52-3.05-2.44-1.38-1.07-2.95-2.12-4.71-3.16-1.79-1.04-3.73-1.91-5.81-2.62-2.08-.71-4.31-1.07-6.69-1.07-2.64,0-5.14.41-7.52,1.24-2.38.83-4.57,2.2-6.59,4.12-1.92,1.85-3.48,4.3-4.66,7.36-1.19,3.05-1.78,6.76-1.78,11.11s.64,8.35,1.93,11.4c1.29,3.05,2.91,5.46,4.86,7.21,1.99,1.79,4.2,3.06,6.64,3.83s4.85,1.14,7.23,1.14,4.53-.34,6.76-1.02c2.23-.68,4.29-1.6,6.18-2.77,1.59-.94,3.08-1.94,4.44-3.01,1.17-.91,2.16-1.72,2.97-2.42.26-.22.58-.35.93-.35h0c.79,0,1.42.64,1.42,1.42v15.04c0,.56-.34,1.08-.85,1.3-1.52.67-2.97,1.31-4.37,1.92-1.66.72-3.4,1.33-5.22,1.86-2.38.68-4.61,1.2-6.69,1.56-2.08.36-4.95.54-8.59.54Z"/>
    <path class="cls-3" d="M640.48,37.89c0,11.59-3.32,20.79-9.96,27.61-6.64,6.82-15.82,10.23-27.54,10.23s-20.85-3.41-27.49-10.23c-6.64-6.82-9.96-16.02-9.96-27.61s3.32-20.92,9.96-27.71,15.8-10.18,27.49-10.18,20.82,3.39,27.49,10.18c6.67,6.79,10.01,16.02,10.01,27.71ZM615.62,56.3c1.82-2.21,3.17-4.83,4.05-7.84.88-3.01,1.32-6.55,1.32-10.62,0-4.36-.5-8.07-1.51-11.13-1.01-3.06-2.33-5.53-3.96-7.42-1.66-1.95-3.57-3.37-5.74-4.25-2.17-.88-4.42-1.32-6.76-1.32s-4.61.42-6.71,1.27c-2.1.85-4.03,2.25-5.79,4.2-1.63,1.82-2.95,4.34-3.98,7.54-1.03,3.21-1.54,6.93-1.54,11.16s.5,8.02,1.49,11.06c.99,3.04,2.3,5.53,3.93,7.45,1.63,1.92,3.53,3.34,5.71,4.25,2.18.91,4.48,1.37,6.88,1.37s4.7-.46,6.88-1.39c2.18-.93,4.08-2.37,5.71-4.32Z"/>
    <path class="cls-3" d="M671.28,74.22h-15.42c-.79,0-1.42-.64-1.42-1.42v-16.35c0-.79.64-1.42,1.42-1.42h15.42c.79,0,1.42.64,1.42,1.42v16.35c0,.79-.64,1.42-1.42,1.42Z"/>
  </g>
</svg>